<?xml version="1.0"?><svg width="1440" height="1440" xmlns="http://www.w3.org/2000/svg">
 <!-- Created with SVG-edit - http://svg-edit.googlecode.com/ -->
 <g>
  <title>Layer 1</title>
  <path fill="#3C2417" d="m1256.122437,401.24939c-33.442871,-30.574982 -63.346924,42.035492 -81.940796,65.415771c-6.056885,7.600372 -16.72644,15.318024 -25.577026,23.306305c-136.079346,-35.310303 -228.613037,-19.229401 -292.916382,55.113495c-10.253906,11.848267 -18.318604,30.005981 -27.671753,44.428589c-9.909058,-14.389404 -20.038086,-22.214355 -34.6875,-29.230469c2.727173,-15.19812 3.120239,-28.71759 5.569336,-39.126953c9.702759,-41.12973 17.925659,-86.632507 14.264648,-145.483734c-3.112793,-50.16394 -19.476807,-88.364716 -37.083496,-125.506882c-17.805542,-37.585983 -44.186157,-80.16745 -42.788086,-116.959869c2.334595,-61.305702 78.945313,-86.316204 128.767334,-56.853676c0,0 24.485107,10.577927 29.720459,34.455551c9.059814,41.336479 22.719482,42.915794 22.719482,42.915794c0.400513,0 0.772949,-0.053574 0.997559,-0.14296c13.373901,-4.653534 15.244019,-16.583557 10.832764,-29.551903c-25.298828,-74.43462 -90.342163,-84.96394 -90.342163,-84.96394c-23.188843,-6.602669 -33.830444,-4.275902 -51.347656,0c-33.98877,12.33054 -75.304688,41.11195 -77.02417,91.283512c-2.497681,73.059601 49.83728,111.615097 71.314209,188.271851c19.974121,71.253235 7.899048,139.666779 -5.702148,196.826477c-2.423706,10.187317 -5.235352,23.012695 -9.404297,36.787415c-11.651489,-1.00531 -19.119263,-0.423584 -30.128296,3.372742c-0.247314,-17.563232 -6.559326,-38.277344 -8.574951,-54.564941c-8.677002,-70.219879 -23.408447,-129.879913 -48.686768,-187.072754c-8.077515,-18.28775 -17.777588,-57.473419 -30.549438,-76.871017c3.457031,-7.092728 6.641113,-16.754532 9.666748,-30.978149c31.332764,-147.177795 -35.973511,-117.148743 -37.338501,-87.752556c-1.369995,29.401482 28.406372,43.117302 -9.929688,102.483818c-30.209961,46.773331 -5.398438,47.12291 6.498291,45.160843c36.552734,64.596832 62.823608,145.738922 74.485718,233.470917c3.046265,22.931335 13.251587,63.137451 10.131226,77.167175c-28.500854,20.41571 -45.367554,49.801575 -51.740723,93.324585c-0.344482,2.326721 -0.701416,4.444397 -1.06897,6.426697c-1.063843,0.178589 -2.122681,0.339294 -3.178833,0.574158c-20.418335,4.477539 -36.940552,18.239258 -47.737793,37.312988c-8.128662,-5.735352 -18.114258,-9.12616 -28.929321,-9.034241c-26.885742,0.237244 -48.492798,21.614685 -48.268311,47.758057c0.224365,26.148315 22.198853,47.143127 49.082031,46.923828c5.939453,-0.063843 11.603271,-1.194031 16.856689,-3.135559c0.163208,0.857117 0.316406,1.694214 0.505127,2.564087c2.844727,12.955627 7.416626,24.959412 13.287354,35.672668c-37.846191,55.26123 -74.835327,124.098206 -106.216583,184.970398c-2.987366,5.763489 -3.852539,13.236145 0,19.968811c19.951477,48.75354 40.015045,97.381104 64.16568,141.940063c-1.602051,6.140869 -2.321777,14.460815 -1.380371,25.748047c3.737915,44.811157 8.924683,51.209961 18.668091,57.879272c11.825317,8.092285 26.138184,-11.205688 28.010864,-9.333252c7.291748,7.289429 22.400635,-6.220093 26.135742,-14.940552c0.826538,-1.915894 0.813721,-5.717407 2.806396,-5.459473c13.37915,1.727295 17.754517,-19.907837 10.264038,-28.143555c-13.695557,-15.070557 -30.921875,-31.690308 -47.865112,-39.098877c-15.180542,-49.161377 -55.692993,-89.681519 -65.660889,-144.486328c13.295044,-28.311707 42.369751,-70.056458 72.444702,-110.487244c18.790283,24.22467 59.078247,35.8078 101.529663,26.505676c19.124634,-4.19696 36.062866,-12.065186 49.556641,-22.168335c11.9375,81.930542 29.518921,184.181885 45.084351,227.523682c-6.485474,5.689453 -13.866577,15.38208 -16.274902,30.993286c-6.860352,44.436279 -2.071655,51.934448 6.05188,60.51709c9.855469,10.389038 27.913696,-5.444458 29.345093,-3.224609c5.592529,8.664307 23.206665,-1.359741 28.697266,-9.092773c1.211914,-1.704102 1.997681,-5.419067 3.893433,-4.750732c12.708008,4.513428 23.546143,-15.338379 17.96106,-24.964355c-11.108521,-19.176025 -20.290649,-45.806641 -39.849121,-54.236084c0.566528,-28.069458 -13.118774,-75.962769 -15.879395,-97.485718c-8.424438,-65.678833 -18.399902,-129.948853 -25.67627,-191.131836c-1.671265,-14.02478 -1.127808,-29.748413 -2.303833,-44.543396c34.463135,-17.996826 61.882202,-58.136963 69.14563,-107.790649c3.985229,-27.184265 6.737915,-42.043091 -1.012817,-64.624817c7.01355,-19.879822 11.251343,-40.315918 21.436035,-53.789429c26.914063,-35.60614 68.691895,-72.870544 124.64978,-76.245911c50.9729,-3.074402 92.857666,20.80072 143.748901,20.219116c1.351929,1.387939 2.956787,2.793579 4.847534,4.207092c26.867676,20.076355 50.40625,-28.347717 50.40625,-28.347717c39.80542,-39.114227 86.614624,-76.669495 61.188354,-99.914612z" id="svg_2"/>
  <g id="svg_3">
   <path fill="#FED09E" d="m1194.934082,501.156372c0,0 -23.541138,48.423889 -50.40625,28.347717c-31.192505,-23.319092 14.223511,-43.482178 29.65625,-62.841583c18.594238,-23.380249 48.498047,-95.990601 81.940796,-65.415588c25.423828,23.247589 -21.385376,60.802856 -61.190796,99.909454z" id="svg_4"/>
   <path fill="#FED09E" d="m721.481323,708.246765c12.126465,5.11792 23.612427,43.204041 23.612427,43.204041c8.980591,1.625122 18.407593,1.354736 27.674194,-3.65863c19.366943,-10.473083 27.824707,-32.368591 18.905029,-48.875488c-8.932007,-16.525024 -31.878662,-21.423523 -51.243042,-10.958008c-8.865723,4.796448 -15.445557,11.978455 -19.124634,19.943665l0.176025,0.344421z" id="svg_5"/>
   <path fill="#FED09E" d="m585.646729,792.95813c-12.039673,-39.336121 5.380737,-65.877502 5.380737,-65.877502c-20.308594,-9.570068 -43.283203,-3.561584 -51.291626,13.430115c-8.001221,16.971375 1.967041,38.511963 22.280396,48.089722c7.666748,3.610168 15.705933,5.000793 23.181396,4.434265" id="svg_6"/>
   <path fill="#FED09E" d="m655.55249,206.119644c31.332764,-147.177795 -35.973389,-117.148743 -37.338501,-87.752556c-1.369995,29.401482 28.406494,43.117302 -9.929565,102.483818c-38.351318,59.374344 11.973267,43.938919 11.973267,43.938919c15.394775,-14.142044 26.074707,-15.34874 35.2948,-58.670181z" id="svg_7"/>
   <path fill="#FED09E" d="m573.443604,1164.723022c0,0 -22.40564,-1.869873 -18.668091,42.938843c3.738037,44.811157 8.924683,51.210083 18.668091,57.879272c11.825317,8.092407 26.138184,-11.205688 28.010864,-9.332642c7.291748,7.28894 22.400635,-6.220093 26.135742,-14.94104c0.826538,-1.915894 0.813843,-5.717407 2.806396,-5.459473c13.37915,1.727173 17.754639,-19.907959 10.26416,-28.143555c-19.005005,-20.918335 -44.808716,-44.811279 -67.217163,-42.941406z" id="svg_8"/>
   <path fill="#FED09E" d="m806.771606,1138.398926c0,0 -22.703979,8.258789 -27.301514,38.0448c-6.860352,44.436279 -2.071655,51.93457 6.051636,60.51709c9.855835,10.38916 27.914063,-5.443848 29.345459,-3.224487c5.592529,8.664185 23.206665,-1.359863 28.697021,-9.092896c1.211792,-1.704102 1.997925,-5.419067 3.893311,-4.75061c12.708252,4.513306 23.546021,-15.338501 17.961304,-24.964478c-14.169922,-24.462402 -25.199219,-61.073364 -58.647217,-56.529419z" id="svg_9"/>
   <g id="svg_10">
    <g id="svg_11">
     <path fill="#FED09E" d="m781.842773,850.827087c-4.561768,-20.785461 -21.744873,-36.535034 -45.137695,-44.548645c1.602051,-10.233337 1.392822,-21.079224 -1.007813,-32.031921c-9.309937,-42.451294 -47.462158,-70.143127 -85.231812,-61.859131c-37.767334,8.284119 -60.841309,49.401184 -51.531372,91.850159c2.395508,10.947449 6.750732,20.897644 12.488403,29.518616c-17.894775,17.06311 -26.91626,38.547791 -22.357056,59.338318c8.281494,37.76709 58.157349,58.922546 111.38269,47.25293c53.235718,-11.669678 89.676392,-51.755737 81.394653,-89.520325zm-139.807007,-56.896973c-5.81958,2.617676 -13.578125,-2.010681 -17.313232,-10.330444c-3.745361,-8.322327 -2.071777,-17.185425 3.753174,-19.808228c5.811768,-2.615112 13.5625,2.010376 17.307861,10.327698c3.74292,8.325073 2.066772,17.206116 -3.747803,19.810974zm26.413818,-41.576294c6.108032,-1.063843 12.371338,5.526184 13.973389,14.731262c1.617676,9.205078 -2.03833,17.552917 -8.140991,18.611877c-6.108032,1.06134 -12.368896,-5.536194 -13.965942,-14.738953c-1.615112,-9.207703 2.033325,-17.547913 8.133545,-18.604187zm13.009155,92.699524c-11.14917,2.43634 -21.675903,-2.352356 -23.505249,-10.718201c-1.834351,-8.357849 5.717407,-17.106506 16.869385,-19.558472c11.143921,-2.438843 21.663208,2.357605 23.497559,10.715698c1.831909,8.350708 -5.717407,17.109009 -16.861694,19.560974zm52.664185,56.307373c-11.297119,9.177185 -24.829224,11.226135 -30.227783,4.585022c-5.393433,-6.646118 -0.609741,-19.461609 10.684937,-28.643738c11.299683,-9.17688 24.821777,-11.215637 30.217773,-4.574402c5.398438,6.641113 0.61731,19.461243 -10.674927,28.633118z" id="svg_12"/>
    </g>
   </g>
  </g>
 </g>
</svg>